
<svg width="148px" height="193px" viewBox="344 79 148 193" version="1.1" xmlns="http://www.w3.org/2000/svg" xmlns:xlink="http://www.w3.org/1999/xlink">
    <!-- Generator: Sketch 42 (36781) - http://www.bohemiancoding.com/sketch -->
    <desc>Created with Sketch.</desc>
    <defs></defs>
    <g id="Whole" stroke="none" fill="none" transform="translate(344.000000, 79.000000)" stroke-width="1" fill-rule="evenodd">
        <g>
            <g id="4131_layer_1" transform="translate(9.000000, 0.000000)" fill-rule="nonzero" fill="#716557">
                <g id="Layer_1">
                    <path d="M119.141,62.104 L122.155,65.115 L95.66,91.612 L95.654,109.969 L131.328,74.295 L134.345,77.306 L134.917,62.241 L119.141,62.104 Z M43.078,9.416 L45.687,12.025 L46.142,0 C40.36,1.679 34.865,4.019 29.736,6.938 L5.432,31.248 L21.25,31.248 L43.078,9.416 Z M46.933,85.449 L47.438,71.919 L33.275,71.79 L35.988,74.506 L0.352,110.142 C2.266,113.637 4.453,116.957 6.869,120.094 L44.223,82.742 L46.933,85.449 Z M99.477,57.505 L99.982,43.97 L85.817,43.845 L88.527,46.562 L55.678,79.41 L54.287,97.264 L96.76,54.792 L99.477,57.505 Z M41.716,128.464 L30.022,140.156 C33.608,142.177 37.366,143.93 41.281,145.36 L49.95,136.691 L52.661,139.408 L53.165,125.871 L39.003,125.747 L41.716,128.464 Z M78.55,94.854 L52.371,121.025 L59.021,121.817 L60.9,130.852 L87.723,104.026 L90.738,107.046 L91.312,91.974 L75.539,91.836 L78.55,94.854 Z" id="Shape"></path>
                </g>
            </g>
            <g id="4131_layer_2" transform="translate(0.000000, 3.000000)" fill-rule="nonzero" fill="#D2CAB8">
                <g id="Layer_1">
                    <g>
                        <path d="M33.941,52.972 L34.49,38.487 L19.331,38.357 L22.227,41.253 L0.357,63.122 C0.127,65.54 0,67.986 0,70.464 C0,73.85 0.242,77.178 0.67,80.448 L31.045,50.069 L33.941,52.972 Z M12.75,46.532 L13.299,32.047 L10.367,32.022 C6.949,37.89 4.28,44.245 2.514,50.97 L9.856,43.628 L12.75,46.532 Z M88.977,13.864 L89.459,0.847 L75.851,0.735 L78.46,3.341 L40.812,40.99 L39.469,58.149 L86.367,11.254 L88.977,13.864 Z M27.923,83.832 L28.416,70.825 L14.803,70.709 L17.404,73.311 L2.169,88.547 C3.164,92.652 4.477,96.632 6.104,100.448 L25.319,81.231 L27.923,83.832 Z M111.646,21.788 L112.153,8.252 L97.988,8.136 L100.702,10.844 L51.98,59.563 L63.558,64.451 L108.931,19.08 L111.646,21.788 Z M48.791,99.879 L23.277,125.394 C26.078,128.109 29.084,130.607 32.273,132.872 L57.029,108.115 L59.738,110.823 L60.252,97.293 L46.083,97.172 L48.791,99.879 Z M132.835,83.33 L135.541,86.038 L97.657,123.909 L97.021,133.006 L105.724,132.324 L143.781,94.274 L146.488,96.982 L147.002,83.444 L132.835,83.33 Z M82.673,83.459 L99.133,83.459 L137.566,45.022 L140.283,47.739 L140.79,34.2 L126.622,34.079 L129.333,36.795 L82.673,83.459 Z M80.192,129.921 L64.147,145.968 C68.171,146.622 72.297,146.976 76.507,146.976 C77.575,146.976 78.635,146.939 79.693,146.896 L88.429,138.158 L91.138,140.866 L91.652,127.33 L77.485,127.215 L80.192,129.921 Z" id="Shape"></path>
                    </g>
                </g>
            </g>
            <g id="DCRM" transform="translate(13.000000, 163.000000)" fill="#716558">
                <path d="M27.2148438,16.3574219 C27.2148438,18.373057 26.201182,19.9023385 24.1738281,20.9453125 C22.6035078,21.7421915 20.6875113,22.140625 18.4257812,22.140625 L1.90234375,22.140625 C0.98827668,22.140625 0.53125,21.677739 0.53125,20.7519531 L0.53125,2.1015625 C0.53125,1.18749543 0.98827668,0.73046875 1.90234375,0.73046875 L18.5136719,0.73046875 C24.3144821,0.73046875 27.2148438,2.54685684 27.2148438,6.1796875 L27.2148438,16.3574219 Z M23.3476563,16.3398438 L23.3476563,6.19726562 C23.3476563,5.36523021 22.7148501,4.74414268 21.4492188,4.33398438 C20.5468705,4.05273297 19.5332088,3.91210938 18.4082031,3.91210938 L4.43359375,3.91210938 L4.43359375,18.9238281 L18.3378906,18.9238281 C19.5449279,18.9238281 20.5878862,18.7656266 21.4667969,18.4492188 C22.7207094,18.003904 23.3476563,17.3007861 23.3476563,16.3398438 Z M53.6347656,2.5234375 C53.6347656,3.44922338 53.1777389,3.91210938 52.2636719,3.91210938 L38.359375,3.91210938 C34.9843581,3.91210938 33.296875,4.58593076 33.296875,5.93359375 L33.296875,16.5332031 C33.296875,18.1269611 35.1659969,18.9238281 38.9042969,18.9238281 L52.1757812,18.9238281 C53.1250047,18.9238281 53.5996094,19.4570259 53.5996094,20.5234375 C53.5996094,21.6015679 53.1250047,22.140625 52.1757812,22.140625 L38.9042969,22.140625 C37.1113192,22.140625 35.8222696,22.0703132 35.0371094,21.9296875 C34.1816363,21.7656242 33.2910203,21.4492211 32.3652344,20.9804688 C31.3105416,20.4296847 30.5722677,19.8554717 30.1503906,19.2578125 C29.6464819,18.5781216 29.3945312,17.6933648 29.3945312,16.6035156 L29.3945312,5.95117188 C29.3945312,4.60350889 30.0097595,3.45508287 31.2402344,2.50585938 C32.2714895,1.7206992 33.5253832,1.19336072 35.0019531,0.923828125 C35.376955,0.865234082 35.8339817,0.818359551 36.3730469,0.783203125 C36.9121121,0.748046699 37.5507776,0.73046875 38.2890625,0.73046875 L52.2636719,0.73046875 C53.1777389,0.73046875 53.6347656,1.32811902 53.6347656,2.5234375 Z M82.9023438,8.72851562 C82.9023438,10.662119 81.8828227,12.0742143 79.84375,12.9648438 C78.2265544,13.621097 76.3632918,13.9492188 74.2539062,13.9492188 L67.8203125,13.9492188 L80.8632812,19.4863281 C81.554691,19.7910171 81.9003906,20.2421845 81.9003906,20.8398438 C81.9003906,21.7187544 81.1328202,22.1582031 79.5976562,22.1582031 C78.9882782,22.1582031 78.5078143,22.1113286 78.15625,22.0175781 L60.3496094,14.40625 L60.3496094,20.7519531 C60.3496094,21.677739 59.8925827,22.140625 58.9785156,22.140625 C58.0058545,22.140625 57.4433601,22.0996098 57.2910156,22.0175781 C56.7285128,21.841796 56.4472656,21.4199252 56.4472656,20.7519531 L56.4472656,2.1015625 C56.4472656,1.18749543 56.9042923,0.73046875 57.8183594,0.73046875 L73.5332031,0.73046875 C75.9707153,0.73046875 77.9746015,1.04687184 79.5449219,1.6796875 C81.7832143,2.58203576 82.9023438,4.07030213 82.9023438,6.14453125 L82.9023438,8.72851562 Z M79,8.76367188 L79,6.05664062 C79,4.62694598 77.1718933,3.91210937 73.515625,3.91210937 L60.3496094,3.91210937 L60.3496094,10.7675781 L74.21875,10.7675781 C77.4062659,10.7675781 79,10.0996161 79,8.76367188 Z M121.416016,20.7519531 C121.416016,21.431644 121.134768,21.8593741 120.572266,22.0351562 C120.337889,22.1054691 119.775395,22.140625 118.884766,22.140625 C117.970699,22.140625 117.513672,21.677739 117.513672,20.7519531 L117.513672,6.90039062 L106,21.1035156 C105.390622,21.8535194 104.564458,22.2285156 103.521484,22.2285156 C102.466792,22.2285156 101.634769,21.8535194 101.025391,21.1035156 L89.3007812,6.83007812 L89.3007812,20.7519531 C89.3007812,21.677739 88.8437546,22.140625 87.9296875,22.140625 C87.0273392,22.140625 86.4648449,22.1054691 86.2421875,22.0351562 C85.6796847,21.8593741 85.3984375,21.431644 85.3984375,20.7519531 L85.3984375,2.78710938 C85.3984375,1.462884 86.1249927,0.80078125 87.578125,0.80078125 C88.5273485,0.80078125 89.2890596,1.1406216 89.8632812,1.8203125 L103.574219,18.0449219 L116.96875,1.80273438 C117.531253,1.12304348 118.269527,0.783203125 119.183594,0.783203125 C120.671882,0.783203125 121.416016,1.50389904 121.416016,2.9453125 L121.416016,20.7519531 Z"></path>
            </g>
        </g>
    </g>
</svg>