<?xml version="1.0" encoding="UTF-8"?>
<svg width="13px" height="13px" viewBox="0 0 13 13" version="1.1" xmlns="http://www.w3.org/2000/svg" xmlns:xlink="http://www.w3.org/1999/xlink">
    <!-- Generator: Sketch 55.2 (78181) - https://sketchapp.com -->
    <title>untitled</title>
    <desc>Created with Sketch.</desc>
    <g id="page1" stroke="none" stroke-width="1" fill="none" fill-rule="evenodd">
        <g id="sync-solid" transform="translate(0.760000, 0.200000)" fill="#ADB5BD" fill-rule="nonzero">
            <path d="M9.76758008,1.0134957 L9.85461133,2.81438984 C8.83144184,1.60738129 7.32862293,0.912241987 5.74630117,0.9140625 C3.11143008,0.9140625 0.917807422,2.80525156 0.447403516,5.30522422 C0.433315573,5.38148214 0.453855114,5.46005644 0.503458973,5.51966514 C0.553062831,5.57927385 0.626597393,5.61374792 0.704145703,5.61375 L1.77136641,5.61375 C1.89249241,5.6136188 1.99762303,5.53019896 2.02528008,5.41227266 C2.38091409,3.93633968 3.5752858,2.81012226 5.06954631,2.54172102 C6.56380681,2.27331978 8.0754574,2.91347755 8.92250664,4.17338281 L6.71495898,4.06763984 C6.6435899,4.06424594 6.57394801,4.09024825 6.52226724,4.13958549 C6.47058648,4.18892274 6.44138263,4.2572839 6.44146328,4.32873359 L6.44146328,5.36027148 C6.44146328,5.50446958 6.55835893,5.62136523 6.70255703,5.62136523 L11.0589062,5.62136523 C11.2031043,5.62136523 11.32,5.50446958 11.32,5.36027148 L11.32,1.00109375 C11.32,0.856895654 11.2031043,0.74 11.0589062,0.74 L10.0282387,0.74 C9.95686455,0.74 9.88861761,0.769294366 9.8393756,0.820961487 C9.79013359,0.872628607 9.7641898,0.942202133 9.76758008,1.0134957 Z M5.74630117,10.139375 C4.47131523,10.1404674 3.27979288,9.50553287 2.56966055,8.44661719 L4.78460586,8.55257773 C4.85597494,8.55597164 4.92561684,8.52996933 4.9772976,8.48063208 C5.02897836,8.43129484 5.05818221,8.36293368 5.05810156,8.29148398 L5.05810156,7.26016367 C5.05810156,7.11596558 4.94120591,6.99906992 4.79700781,6.99906992 L0.44109375,6.99906992 C0.296895654,6.99906992 0.18,7.11596558 0.18,7.26016367 L0.18,11.6189062 C0.18,11.7631043 0.296895654,11.8800002 0.44109375,11.8800002 L1.47132617,11.8800002 C1.54289491,11.8800895 1.61136285,11.8507968 1.66072064,11.7989711 C1.71007843,11.7471454 1.73599842,11.6773308 1.73241992,11.6058516 L1.642125,9.80930898 C2.66507853,11.0138119 4.16602938,11.7074337 5.74630117,11.7059375 C8.38138984,11.7059375 10.5750125,9.81474844 11.0454164,7.31477578 C11.0595043,7.23851786 11.0389648,7.15994356 10.9893609,7.10033486 C10.9397571,7.04072615 10.8662225,7.00625208 10.7886742,7.00625 L9.72145352,7.00625 C9.60032751,7.0063812 9.49519689,7.08980104 9.46753984,7.20772734 C9.05391947,8.92764243 7.5152527,10.1398272 5.74630117,10.139375 Z" id="shape"></path>
        </g>
    </g>
</svg>